<?xml version="1.0"?>

<svg xmlns="http://www.w3.org/2000/svg" viewBox="0 0 240 302" width="240" height="302" role="img" aria-label="Bear mascot">
  <title>Bear mascot</title>

  
  <path d="M 120 40 C 124.67 40, 130.62 39.42, 134 37 C 137.05 34.82, 137.63 30.48, 140 27 C 142.81 22.87, 145.64 15.82, 150 14 C 154.32 12.2, 162.04 13.13, 166 16 C 170.27 19.1, 173.4 27.23, 174 33 C 174.58 38.57, 169.79 43.77, 170 50 C 170.26 57.78, 176.16 67.43, 178 76 C 179.74 84.08, 181.56 91.9, 181 100 C 180.41 108.55, 177.84 118.35, 174 126 C 170.36 133.25, 159.29 139.05, 159 145 C 158.76 149.93, 164.86 153.82, 168 159 C 171.79 165.25, 177.18 172.37, 180 180 C 182.95 187.98, 184.81 197.24, 185 206 C 185.19 214.9, 183.26 224.92, 181 233 C 179.03 240.03, 174.65 246.05, 173 252 C 171.63 256.93, 171.5 261.24, 171 266 C 170.49 270.9, 172.78 277.52, 170 281 C 166.73 285.11, 156.6 286.89, 150 287 C 143.6 287.11, 134.77 285.76, 131 282 C 127.64 278.66, 128.49 271.98, 127 267 C 125.49 261.98, 123.6 254.59, 122 252 C 121.32 250.9, 120.67 250, 120 250 C 119.33 250, 118.68 250.9, 118 252 C 116.4 254.59, 114.51 261.98, 113 267 C 111.51 271.98, 112.36 278.66, 109 282 C 105.23 285.76, 96.4 287.11, 90 287 C 83.4 286.89, 73.27 285.11, 70 281 C 67.22 277.52, 69.51 270.9, 69 266 C 68.5 261.24, 68.37 256.93, 67 252 C 65.35 246.05, 60.97 240.03, 59 233 C 56.74 224.92, 54.81 214.9, 55 206 C 55.19 197.24, 57.05 187.98, 60 180 C 62.82 172.37, 68.21 165.25, 72 159 C 75.14 153.82, 81.24 149.93, 81 145 C 80.71 139.05, 69.64 133.25, 66 126 C 62.16 118.35, 59.59 108.55, 59 100 C 58.44 91.9, 60.26 84.08, 62 76 C 63.84 67.43, 69.74 57.78, 70 50 C 70.21 43.77, 65.42 38.57, 66 33 C 66.6 27.23, 69.73 19.1, 74 16 C 77.96 13.13, 85.68 12.2, 90 14 C 94.36 15.82, 97.19 22.87, 100 27 C 102.37 30.48, 102.95 34.82, 106 37 C 109.38 39.42, 115.33 40, 120 40 Z" fill="#E8F1F8"></path>
  <path d="M 120 40 C 124.67 40, 130.62 39.42, 134 37 C 137.05 34.82, 137.63 30.48, 140 27 C 142.81 22.87, 145.64 15.82, 150 14 C 154.32 12.2, 162.04 13.13, 166 16 C 170.27 19.1, 173.4 27.23, 174 33 C 174.58 38.57, 169.79 43.77, 170 50 C 170.26 57.78, 176.16 67.43, 178 76 C 179.74 84.08, 181.56 91.9, 181 100 C 180.41 108.55, 177.84 118.35, 174 126 C 170.36 133.25, 159.29 139.05, 159 145 C 158.76 149.93, 164.86 153.82, 168 159 C 171.79 165.25, 177.18 172.37, 180 180 C 182.95 187.98, 184.81 197.24, 185 206 C 185.19 214.9, 183.26 224.92, 181 233 C 179.03 240.03, 174.65 246.05, 173 252 C 171.63 256.93, 171.5 261.24, 171 266 C 170.49 270.9, 172.78 277.52, 170 281 C 166.73 285.11, 156.6 286.89, 150 287 C 143.6 287.11, 134.77 285.76, 131 282 C 127.64 278.66, 128.49 271.98, 127 267 C 125.49 261.98, 123.6 254.59, 122 252 C 121.32 250.9, 120.67 250, 120 250 C 119.33 250, 118.68 250.9, 118 252 C 116.4 254.59, 114.51 261.98, 113 267 C 111.51 271.98, 112.36 278.66, 109 282 C 105.23 285.76, 96.4 287.11, 90 287 C 83.4 286.89, 73.27 285.11, 70 281 C 67.22 277.52, 69.51 270.9, 69 266 C 68.5 261.24, 68.37 256.93, 67 252 C 65.35 246.05, 60.97 240.03, 59 233 C 56.74 224.92, 54.81 214.9, 55 206 C 55.19 197.24, 57.05 187.98, 60 180 C 62.82 172.37, 68.21 165.25, 72 159 C 75.14 153.82, 81.24 149.93, 81 145 C 80.71 139.05, 69.64 133.25, 66 126 C 62.16 118.35, 59.59 108.55, 59 100 C 58.44 91.9, 60.26 84.08, 62 76 C 63.84 67.43, 69.74 57.78, 70 50 C 70.21 43.77, 65.42 38.57, 66 33 C 66.6 27.23, 69.73 19.1, 74 16 C 77.96 13.13, 85.68 12.2, 90 14 C 94.36 15.82, 97.19 22.87, 100 27 C 102.37 30.48, 102.95 34.82, 106 37 C 109.38 39.42, 115.33 40, 120 40 Z" fill="none" stroke="#6FA0C0" stroke-width="2.5" stroke-linejoin="round"></path>

  
  <g>
    <circle cx="85" cy="32" r="9" fill="#F2F9FF"></circle>
    <circle cx="155" cy="32" r="9" fill="#F2F9FF"></circle>
    <ellipse cx="120" cy="200" rx="33" ry="38" fill="#F2F9FF" opacity="0.5"></ellipse>
    <ellipse cx="120" cy="112" rx="25" ry="17" fill="#F2F9FF"></ellipse>
    <circle cx="101" cy="90" r="6" fill="#38505E"></circle>
    <circle cx="139" cy="90" r="6" fill="#38505E"></circle>
    <ellipse cx="120" cy="103" rx="8.5" ry="6" fill="#38505E"></ellipse>
    <path d="M120 109 q0 8 -8 10 M120 109 q0 8 8 10" stroke="#38505E" stroke-width="2" fill="none" stroke-linecap="round"></path>
  </g>
</svg>